<?xml version="1.0" encoding="utf-8"?>
<!-- Generator: Adobe Illustrator 22.0.0, SVG Export Plug-In . SVG Version: 6.00 Build 0)  -->
<svg version="1.1" xmlns="http://www.w3.org/2000/svg" xmlns:xlink="http://www.w3.org/1999/xlink" x="0px" y="0px"
	 viewBox="0 0 500 500" style="enable-background:new 0 0 500 500;" xml:space="preserve">
<style type="text/css">
	.st0{fill:#FAFAFA;}
	.st1{fill:#F0F0F0;}
	.st2{fill:#27DEBF;}
	.st3{opacity:0.2;}
	.st4{fill:#FFFFFF;}
	.st5{fill:#455A64;}
	.st6{fill:#F5F5F5;}
	.st7{opacity:0.2;fill:#FFFFFF;}
	.st8{fill:#263238;}
	.st9{fill:#F28F8F;}
	.st10{fill:#37474F;}
	.st11{fill:#FFA8A7;}
	.st12{opacity:0.6;fill:#FFFFFF;}
</style>
<g id="Floor">
	<path class="st0" d="M106.4,407.4c83.8,43.8,219.6,43.8,303.4,0c83.8-43.8,83.8-114.7,0-158.5c-83.8-43.8-219.6-43.8-303.4,0
		C22.6,292.7,22.6,363.6,106.4,407.4z"/>
</g>
<g id="Shadow">
	<ellipse class="st1" cx="328.2" cy="400.8" rx="30.7" ry="14.6"/>
</g>
<g id="Screens_2">
	<g>
		<path class="st1" d="M88.4,148v50.3c0,1.7,1.2,2.3,2.6,1.5l116.8-67.4c1.4-0.8,2.6-2.8,2.6-4.5V77.5c0-1.7-1.2-2.3-2.6-1.5
			L91,143.5C89.6,144.3,88.4,146.3,88.4,148z"/>
		<path class="st0" d="M96.5,147.2l35-20.2c1.6-0.9,2.9-0.2,2.9,1.7v35.2c0,1.8-1.3,4.1-2.9,5l-35,20.2c-1.6,0.9-2.9,0.2-2.9-1.7
			v-35.2C93.6,150.4,94.9,148.1,96.5,147.2z"/>
		<path class="st2" d="M124.9,144.6l-10.4,21.6l-5.3-3.1c-1.1-0.6-2.4-0.3-3,0.8l-12.5,21.6v1.9c0,1.8,1.3,2.6,2.9,1.7l35-20.2
			c1.6-0.9,2.9-3.2,2.9-5v-12.4l-7-7.3C126.5,143.3,125.4,143.5,124.9,144.6z"/>
		<path class="st2" d="M98.9,160.1c4.1-2.4,7.4-8.1,7.4-12.9c0-2.2-0.7-3.7-1.8-4.6l-7.9,4.6c-1.6,0.9-2.9,3.2-2.9,5v8.4
			C95,161.4,96.8,161.3,98.9,160.1z"/>
		<path class="st0" d="M147.5,121.1l52.6-30.4c1.2-0.7,2.2-0.2,2.2,1.1c0,1.3-1,2.9-2.2,3.6l-52.6,30.4c-1.2,0.7-2.2,0.2-2.2-1.1
			C145.3,123.4,146.3,121.8,147.5,121.1z"/>
		<path class="st0" d="M147.5,131.5l52.6-30.4c1.2-0.7,2.2-0.2,2.2,1.1c0,1.3-1,2.9-2.2,3.6l-52.6,30.4c-1.2,0.7-2.2,0.2-2.2-1.1
			C145.3,133.8,146.3,132.2,147.5,131.5z"/>
		<path class="st0" d="M147.5,141.9l52.6-30.4c1.2-0.7,2.2-0.2,2.2,1.1c0,1.3-1,2.9-2.2,3.6l-52.6,30.4c-1.2,0.7-2.2,0.2-2.2-1.1
			C145.3,144.2,146.3,142.6,147.5,141.9z"/>
		<path class="st0" d="M147.5,152.3l52.6-30.4c1.2-0.7,2.2-0.2,2.2,1.1c0,1.3-1,2.9-2.2,3.6l-52.6,30.4c-1.2,0.7-2.2,0.2-2.2-1.1
			C145.3,154.6,146.3,152.9,147.5,152.3z"/>
	</g>
	<g>
		<path class="st1" d="M64,306.3v-73.8c0-1.7,1.2-3.7,2.6-4.5l88.3-51c1.4-0.8,2.6-0.2,2.6,1.5v73.8c0,1.7-1.2,3.7-2.6,4.5l-88.3,51
			C65.2,308.6,64,307.9,64,306.3z"/>
		<path class="st2" d="M64,302.6v3.7c0,1.7,1.2,2.3,2.6,1.5l88.3-51c1.4-0.8,2.6-2.8,2.6-4.5v-3.7L64,302.6z"/>
		<path class="st2" d="M106.7,235.6l9-0.5c1.1-0.1,1.4,0.6,0.7,1.4l-10.3,11.8c-0.7,0.8-1.3,0.6-1.3-0.5l0-10.1
			C104.7,236.6,105.6,235.7,106.7,235.6z"/>
		<path class="st2" d="M104.4,254.8c-1.1,0-2.2-0.3-3.1-0.8c-2.2-1.3-3.4-4-3.4-7.5c0-7.2,5.1-16,11.3-19.7c3.1-1.8,6-2.1,8.2-0.8
			c2.2,1.3,3.4,4,3.4,7.5c0,7.2-5.1,16-11.3,19.7C107.8,254.2,106,254.8,104.4,254.8z M114.4,225.9c-1.5,0-3.1,0.5-4.8,1.5
			c-6.1,3.5-11,12.1-11,19.1c0,3.3,1.1,5.8,3.1,6.9c2,1.2,4.7,0.9,7.6-0.8c6.1-3.5,11-12.1,11-19.1c0-3.3-1.1-5.8-3.1-6.9
			C116.3,226.1,115.4,225.9,114.4,225.9z"/>
	</g>
</g>
<g id="Locator">
	<g>
		<g>
			<g id="XMLID_16478_">
				<path class="st2" d="M68.9,163.9l-5.5-3.1l0,0c-2.6-1.7-6.2-1.7-10.3,0.6c-8,4.6-14.4,16.3-14.4,26.1v2.2
					c0,9.8,13.2,20.4,13.2,20.4l5.4,3c0,0-3.2-3.7-2.9-4.4c3.5-7.2,13.1-27.7,13.1-35.7v-2.2c0-1.8-0.2-3.4-0.6-4.8l0.6,0.4
					L68.9,163.9z M53.1,186.3c-4,2.3-7.2,0.4-7.2-4.2c2.1-0.3,7.5-9.5,7.2-12.5c4-2.3,7.2-0.4,7.2,4.2
					C60.3,178.4,57.1,184,53.1,186.3z"/>
			</g>
			<g id="XMLID_1_" class="st3">
				<path d="M68.9,163.9l-5.5-3.1l0,0c-2.6-1.7-6.2-1.7-10.3,0.6c-8,4.6-14.4,16.3-14.4,26.1v2.2c0,9.8,13.2,20.4,13.2,20.4l5.4,3
					c0,0-3.2-3.7-2.9-4.4c3.5-7.2,13.1-27.7,13.1-35.7v-2.2c0-1.8-0.2-3.4-0.6-4.8l0.6,0.4L68.9,163.9z M53.1,186.3
					c-4,2.3-7.2,0.4-7.2-4.2c2.1-0.3,7.5-9.5,7.2-12.5c4-2.3,7.2-0.4,7.2,4.2C60.3,178.4,57.1,184,53.1,186.3z"/>
			</g>
		</g>
		<g id="XMLID_16280_">
			<path class="st2" d="M68.9,163.9c-0.1,0-0.1-0.1-0.2-0.1c-2.6-1.4-6-1.2-9.8,0.9c-5.7,3.3-10.6,10.2-13,17.5c0,0,0,0,0,0
				c-0.9,2.9-1.4,5.8-1.4,8.6v2.2c0,7.5,8.5,16.3,12.5,19.9c0.1,0.1,0.2,0.2,0.3,0.2c0,0,0,0,0,0c1,0.6,2.2,0.2,2.8-0.8
				c3.4-7,13.3-27.9,13.3-36v-2.2C73.3,169.1,71.6,165.5,68.9,163.9z M51.8,186.9c-0.1-0.4-0.1-0.9-0.1-1.4c0-4.6,3.2-10.2,7.2-12.5
				c0.4-0.3,0.9-0.5,1.3-0.6c3.4-1.2,5.9,0.7,5.9,4.8c0,4.6-3.2,10.2-7.2,12.5C55.4,191.7,52.4,190.5,51.8,186.9z"/>
		</g>
		<g>
			<g id="XMLID_16562_">
				<path class="st2" d="M66.1,177.2c0,4.6-3.2,10.2-7.2,12.5c-3.5,2-6.5,0.8-7.1-2.7c0.4-0.2,0.9-0.4,1.3-0.6
					c4-2.3,7.2-7.9,7.2-12.5c0-0.5,0-1-0.1-1.5C63.6,171.2,66.1,173.1,66.1,177.2z"/>
			</g>
			<g id="XMLID_4_" class="st3">
				<path d="M66.1,177.2c0,4.6-3.2,10.2-7.2,12.5c-3.5,2-6.5,0.8-7.1-2.7c0.4-0.2,0.9-0.4,1.3-0.6c4-2.3,7.2-7.9,7.2-12.5
					c0-0.5,0-1-0.1-1.5C63.6,171.2,66.1,173.1,66.1,177.2z"/>
			</g>
		</g>
	</g>
</g>
<g id="Plants">
	<g>
		<g>
			<path class="st2" d="M171.2,301.3c0,0,3.6-23-4.4-42.8c-8-19.8-18.8-21-24.4-18.2c-5.6,2.8-2,13.8,3,21.2
				c6.6,9.7,17.7,30.5,17.2,49.2L171.2,301.3z"/>
			<path class="st3" d="M171.2,301.3c0,0,3.6-23-4.4-42.8c-8-19.8-18.8-21-24.4-18.2c-5.6,2.8-2,13.8,3,21.2
				c6.6,9.7,17.7,30.5,17.2,49.2L171.2,301.3z"/>
		</g>
		<path class="st4" d="M167.6,302.8C167.6,302.8,167.6,302.8,167.6,302.8c-0.4,0-0.7-0.3-0.7-0.7c1.3-31.5-14.4-55.1-21.2-59.6
			c-0.3-0.2-0.4-0.6-0.2-0.9c0.2-0.3,0.6-0.4,0.9-0.2c8,5.3,23.1,29.4,21.8,60.8C168.2,302.5,167.9,302.8,167.6,302.8z"/>
		<path class="st2" d="M169.8,328.6c-1.4-3.4-4.9-7.3-14-11.4c-9.1-4.1-15.9-9.6-17.2-13.5c-1.3-4,1.6-6.3,1.6-6.3s-8.6-1-9.6-6.3
			c-1.4-6.6,6.1-7,6.1-7s-9.8-13.8-12.4-20c-2.6-6.2,0.4-6.5,6.7-4.2c6.3,2.3,18.4,14.2,20.3,17.8c0,0,3.3-4,6.8-1.4
			c3.5,2.7,3.7,10.5,1.6,13.3c0,0,4.2-1.1,7.4,3.1c3.6,4.7,4.8,16.4,4.8,16.4L169.8,328.6z"/>
		<path class="st4" d="M170.4,325.4c-0.3,0-0.6-0.2-0.7-0.5c-4.9-20.2-27.9-52.6-42.3-62.9c-0.3-0.2-0.4-0.6-0.2-0.9
			c0.2-0.3,0.6-0.4,0.9-0.2c14.5,10.4,37.9,43.1,42.8,63.6c0.1,0.4-0.1,0.7-0.5,0.8C170.5,325.4,170.5,325.4,170.4,325.4z"/>
	</g>
</g>
<g id="Screen_1">
	<g>
		<g>
			<path class="st4" d="M351.4,121.5c-0.1,0-0.2,0-0.3-0.1l-2.8-1.6c-0.3-0.2-0.4-0.6-0.2-0.9c0.2-0.3,0.6-0.4,0.9-0.2l2.8,1.6
				c0.3,0.2,0.4,0.6,0.2,0.9C351.9,121.4,351.6,121.5,351.4,121.5z"/>
			<path class="st5" d="M169.8,180.8v148.8c0,1.7,1.2,2.3,2.6,1.5l173.5-100.2c1.4-0.8,2.6-2.8,2.6-4.5V77.6c0-1.7-1.2-2.3-2.6-1.5
				L172.4,176.3C170.9,177.1,169.8,179.2,169.8,180.8z"/>
			<path class="st6" d="M190.1,208.3c0,5.2,3.9,7.1,8.7,4.4l137.6-79.4v-18.8l-137.6,79.4C193.9,196.7,190.1,203.1,190.1,208.3z"/>
			<path class="st2" d="M348,107.8c4.8-2.8,8.7-0.8,8.7,4.4c0,5.2-3.9,11.6-8.7,14.4l-11.6,6.7v-18.8L348,107.8z"/>
			<path class="st4" d="M343.8,123.6c-0.5,0-1-0.1-1.4-0.4c-1-0.6-1.6-1.7-1.6-3.3c0-2.9,2-6.3,4.5-7.8c1.3-0.8,2.6-0.9,3.6-0.3
				c1,0.6,1.6,1.7,1.6,3.3c0,2.9-2,6.3-4.5,7.8C345.2,123.4,344.5,123.6,343.8,123.6z M347.5,112.8c-0.4,0-1,0.2-1.5,0.5
				c-2.1,1.2-3.8,4.2-3.8,6.6c0,1,0.3,1.8,0.9,2.1c0.6,0.3,1.4,0.2,2.3-0.3c2.1-1.2,3.8-4.2,3.8-6.6c0-1-0.3-1.8-0.9-2.1
				C348,112.9,347.8,112.8,347.5,112.8z"/>
			<g>
				<path class="st2" d="M350,148.8L217,225.6c-1.4,0.8-2.6,2.8-2.6,4.5V271c0,1.7,1.2,2.3,2.6,1.5L350,195.7
					c1.4-0.8,2.6-2.8,2.6-4.5v-40.9C352.5,148.7,351.4,148,350,148.8z"/>
				<path class="st7" d="M350,148.8L217,225.6c-1.4,0.8-2.6,2.8-2.6,4.5V271c0,1.7,1.2,2.3,2.6,1.5L350,195.7
					c1.4-0.8,2.6-2.8,2.6-4.5v-40.9C352.5,148.7,351.4,148,350,148.8z"/>
			</g>
			<path class="st4" d="M265.3,204.5l24.1-13.9c1.2-0.7,2.2-0.2,2.2,1.1c0,1.3-1,2.9-2.2,3.6l-24.1,13.9c-1.2,0.7-2.2,0.2-2.2-1.1
				C263.2,206.8,264.2,205.2,265.3,204.5z"/>
			<path class="st4" d="M263.2,217.5c0,1.3,1,1.8,2.2,1.1l72.8-42.1c1.2-0.7,2.2-2.3,2.2-3.6c0-1.3-1-1.8-2.2-1.1l-72.8,42.1
				C264.2,214.5,263.2,216.2,263.2,217.5z"/>
			<path class="st4" d="M263.2,226.8c0,1.3,1,1.8,2.2,1.1l72.8-42.1c1.2-0.7,2.2-2.3,2.2-3.6c0-1.3-1-1.8-2.2-1.1l-72.8,42.1
				C264.2,223.9,263.2,225.5,263.2,226.8z"/>
			<path class="st4" d="M263.2,236.2c0,1.3,1,1.8,2.2,1.1l72.8-42.1c1.2-0.7,2.2-2.3,2.2-3.6c0-1.3-1-1.8-2.2-1.1l-72.8,42.1
				C264.2,233.3,263.2,234.9,263.2,236.2z"/>
			<path class="st4" d="M221.1,227.9l31.4-18.1c1.4-0.8,2.6-0.2,2.6,1.5v31.5c0,1.7-1.2,3.7-2.6,4.5l-31.4,18.1
				c-1.4,0.8-2.6,0.2-2.6-1.5v-31.5C218.5,230.8,219.7,228.7,221.1,227.9z"/>
			<path class="st2" d="M246.5,225.5l-9.3,19.3l-4.8-2.7c-1-0.6-2.2-0.2-2.7,0.7l-11.2,19.4v1.7c0,1.7,1.2,2.3,2.6,1.5l31.4-18.1
				c1.4-0.8,2.6-2.8,2.6-4.5v-11.1l-6.3-6.6C248,224.4,247,224.5,246.5,225.5z"/>
			<path class="st2" d="M223.2,239.4c3.7-2.1,6.7-7.3,6.7-11.5c0-1.9-0.6-3.3-1.7-4.1l-7.1,4.1c-1.4,0.8-2.6,2.8-2.6,4.5v7.5
				C219.7,240.6,221.4,240.5,223.2,239.4z"/>
			<g>
				<path class="st2" d="M350,209.8L217,286.5c-1.4,0.8-2.6,2.8-2.6,4.5v40.9c0,1.7,1.2,2.3,2.6,1.5L350,256.7
					c1.4-0.8,2.6-2.8,2.6-4.5v-40.9C352.5,209.6,351.4,209,350,209.8z"/>
				<path class="st7" d="M350,209.8L217,286.5c-1.4,0.8-2.6,2.8-2.6,4.5v40.9c0,1.7,1.2,2.3,2.6,1.5L350,256.7
					c1.4-0.8,2.6-2.8,2.6-4.5v-40.9C352.5,209.6,351.4,209,350,209.8z"/>
			</g>
			<path class="st4" d="M265.3,265.5l24.1-13.9c1.2-0.7,2.2-0.2,2.2,1.1c0,1.3-1,2.9-2.2,3.6l-24.1,13.9c-1.2,0.7-2.2,0.2-2.2-1.1
				C263.2,267.8,264.2,266.1,265.3,265.5z"/>
			<path class="st4" d="M263.2,278.4c0,1.3,1,1.8,2.2,1.1l72.8-42.1c1.2-0.7,2.2-2.3,2.2-3.6c0-1.3-1-1.8-2.2-1.1l-72.8,42.1
				C264.2,275.5,263.2,277.1,263.2,278.4z"/>
			<path class="st4" d="M263.2,287.8c0,1.3,1,1.8,2.2,1.1l72.8-42.1c1.2-0.7,2.2-2.3,2.2-3.6c0-1.3-1-1.8-2.2-1.1l-72.8,42.1
				C264.2,284.9,263.2,286.5,263.2,287.8z"/>
			<path class="st4" d="M263.2,297.2c0,1.3,1,1.8,2.2,1.1l72.8-42.1c1.2-0.7,2.2-2.3,2.2-3.6c0-1.3-1-1.8-2.2-1.1l-72.8,42.1
				C264.2,294.3,263.2,295.9,263.2,297.2z"/>
			<path class="st4" d="M221.1,288.9l31.4-18.1c1.4-0.8,2.6-0.2,2.6,1.5v31.5c0,1.7-1.2,3.7-2.6,4.5l-31.4,18.1
				c-1.4,0.8-2.6,0.2-2.6-1.5v-31.5C218.5,291.7,219.7,289.7,221.1,288.9z"/>
			<path class="st2" d="M246.5,286.5l-9.3,19.3l-4.8-2.7c-1-0.6-2.2-0.2-2.7,0.7l-11.2,19.4v1.7c0,1.7,1.2,2.3,2.6,1.5l31.4-18.1
				c1.4-0.8,2.6-2.8,2.6-4.5v-11.1l-6.3-6.6C248,285.4,247,285.5,246.5,286.5z"/>
			<path class="st2" d="M223.2,300.4c3.7-2.1,6.7-7.3,6.7-11.5c0-1.9-0.6-3.3-1.7-4.1l-7.1,4.1c-1.4,0.8-2.6,2.8-2.6,4.5v7.5
				C219.7,301.6,221.4,301.5,223.2,300.4z"/>
			<path class="st2" d="M348.5,84v-6.4c0-1.7-1.2-2.3-2.6-1.5L172.4,176.3c-1.4,0.8-2.6,2.8-2.6,4.5v6.4L348.5,84z"/>
		</g>
		<g id="XMLID_16738_">
			<path class="st6" d="M327.2,89.4c-1.1,0.6-1.9,2.1-1.9,3.3c0,1.2,0.9,1.7,1.9,1.1c1.1-0.6,1.9-2.1,1.9-3.3
				C329.1,89.2,328.3,88.8,327.2,89.4z"/>
		</g>
		<g id="XMLID_16737_">
			<path class="st6" d="M334.9,84.9c-1.1,0.6-1.9,2.1-1.9,3.3c0,1.2,0.9,1.7,1.9,1.1c1.1-0.6,1.9-2.1,1.9-3.3S335.9,84.3,334.9,84.9
				z"/>
		</g>
		<g id="XMLID_16736_">
			<path class="st6" d="M342.5,80.5c-1.1,0.6-1.9,2.1-1.9,3.3c0,1.2,0.9,1.7,1.9,1.1c1.1-0.6,1.9-2.1,1.9-3.3
				C344.4,80.4,343.6,79.9,342.5,80.5z"/>
		</g>
	</g>
</g>
<g id="Character">
	<g>
		<g id="XMLID_33_">
			<g id="XMLID_34_">
				<path class="st8" d="M351.3,394.2c0.3,0.4,0.3,1.2,0.6,2.4c0.3,1.2,0.4,2.1,0.2,2.6c-0.2,0.6-1.4,1.8-3,2.3
					c-1.5,0.5-3.4,0.1-5.2-1c-1.8-1.1-3.2-2.4-5.8-3.2c-2.6-0.7-3.9-1.3-5.1-2.3c-1.4-1.2-3.4-4.3-0.6-5.1c2.8-0.7,8.7,1.9,14.2,2.1
					L351.3,394.2z"/>
			</g>
		</g>
		<g id="XMLID_30_">
			<path class="st9" d="M351,390.6c0,0,0.3,3.8,0.3,4.3c0,1.3-4.8,3-5.6,0l-0.8-4.1L351,390.6z"/>
		</g>
		<path class="st10" d="M345.2,306.8c1.7,2.6,3.3,5,4.5,7.5c0,0,0.5,5.6,0.5,9.3c0,6.8-1.1,12.1-2,25.5c0,0,2.2,3.3,2.6,8.7
			c0.4,6.1,0.4,6,0.4,34c0,0-2.5,1.6-6,0.6l-9-39.2l-1-15.4l-2.8-19.1L345.2,306.8z"/>
		<g id="XMLID_28_">
			<g id="XMLID_29_">
				<path class="st8" d="M323.9,401.2c0.3,0.3,0.2,1,0.4,2.1c0.2,1.2,0.3,2,0.1,2.6c-0.1,0.6-1.2,2-2.7,2.7
					c-1.5,0.7-3.4,0.5-5.3-0.4c-1.9-0.9-3.5-2-6.1-2.4c-2.7-0.4-4-0.8-5.4-1.7c-1.6-1-3.9-3.9-1.2-5c2.7-1.1,9.3,0.9,14.7,0.4
					L323.9,401.2z"/>
			</g>
		</g>
		<g id="XMLID_27_">
			<path class="st9" d="M325.1,396.4c0,0-1,4.4-1.3,5.3c-0.6,2.3-5.8,2.5-5.8-0.2l0.3-6.2L325.1,396.4z"/>
		</g>
		<path class="st10" d="M333.5,308c2.6,5.1,5.1,9.6,5.2,15c0.2,11.5-4.6,24.1-6.3,32.4c0,0,0.9,4.7,0.4,9.1c-0.3,3.5-8.3,35-8.3,35
			s-4.4,0.9-6.3-1.1l2.2-60.7l0.6-17.6L333.5,308z"/>
		<g id="XMLID_26_">
			<polygon class="st11" points="329.9,276.9 331.6,285.9 339.7,285.3 338,275.1 			"/>
		</g>
		<g id="XMLID_25_">
			<path class="st5" d="M348.3,284.7c-0.8-2.5-3.9-5.1-7-4.5c-5.7,1.1-10.3,2.2-13.6,3.4c-2.9,1-5.4,3.5-5.7,12.9l-0.9,23.6
				c0,0,1.5,1.5,4.3,2.3c4.3,1.2,7.2,1.9,13.8,0.5c8.6-1.9,10.6-7.1,10.6-7.1s-0.3-12.5-0.6-19.3C349,290.6,348.9,286.4,348.3,284.7
				z"/>
		</g>
		<path class="st8" d="M326.4,265.4l-41.5-11.3c-3.8-0.6-5.3,8.5-1.6,9.2l42.7,4.3L326.4,265.4z"/>
		<path class="st11" d="M314.5,284.4l-8.5,0.3c0,0,1.3-12.6,2.1-14.3c0.8-1.7,2.7-2,4.6-2.5c1.9-0.5,1.9-1.4,1.9-1.4l-1.7-0.2
			c-1.5-0.2-2.1-2-1.4-3.2c0.3-0.6,0.8-1.5,1.7-1.3c0.9,0.2,2.2,0.6,2.2,0.6s0-2-0.7-2.8c-0.7-0.8-1.3-0.6-2.7-1.1
			c-1.1-0.4-3.4-1.1-5.2-0.3c-1.8,0.8-3.2,4.2-3.7,6.6c-0.5,2.4-0.7,3.7-2.3,8.2c-1.6,4.5-4,13.7-4.3,17.4c-0.1,1.7,0.1,2.7,2,3.2
			c1.9,0.5,15.9,0.5,15.9,0.5L314.5,284.4z"/>
		<g id="XMLID_24_">
			<path class="st11" d="M323.9,266.2c0,0-2,2.9-1.7,3.2c0.3,0.3,1.5,0.7,1.5,0.7L323.9,266.2z"/>
		</g>
		<g id="XMLID_23_">
			<path class="st11" d="M329.9,257c-1.9,1-5.2,2.7-6.1,9.7c-0.9,7.1,0.3,9.4,1.3,10.4c0.7,0.6,4.2,0.7,6,0.1
				c2.2-0.7,7.2-2.6,9.5-6.2c2.7-4.3,3.3-10.1,0.3-12.4C336.6,255.3,331.5,256.1,329.9,257z"/>
		</g>
		<path class="st8" d="M335.5,343.2l4.3-12.2c0,0,5.3-1.7,8.8-5.8c0,0-1,3.5-7.8,7.1l-4.7,11.6l0,6.4L335.5,343.2z"/>
		<g id="XMLID_21_">
			<g id="XMLID_22_">
				<path class="st8" d="M323.4,259.3c0.6,1.7,1.7,5.9,6.1,7.7c0,0,0.6-2.7,2.9-2.4c2.3,0.3,2.6,3.2,1.3,4.9
					c-1.4,1.8-2.7,1.1-2.7,1.1s-0.3,3.8,2.3,5.6c0,0,3.1,2,6.4,0.5c1.5-0.7,3.6-4.2,4.8-7.1c2.6-6.1,3-11-1-12.6
					c-0.5-2.8-1.7-3.8-4.3-4.3c-5.4-1.1-9.5,2.4-14.1,1.8C322.6,254.2,322.7,257.4,323.4,259.3z"/>
			</g>
		</g>
		<g id="XMLID_19_">
			<g id="XMLID_20_">
				<path class="st8" d="M343.4,258l2.6-1.6c-0.4-0.7-1.4-0.9-2.1-0.5C343.2,256.3,343,257.3,343.4,258z"/>
			</g>
		</g>
		<path class="st5" d="M312.6,284.2c0,0,12-0.7,15.1-0.7c3.1,0,6.3,5.2,4.4,8.7c-1.3,2.3-5.2,3.1-10.1,3.4c-4.9,0.2-9.9,0.2-9.9,0.2
			S307.5,290.8,312.6,284.2z"/>
		<path class="st10" d="M322,295.6c0,0,7.6-0.1,10-3.4c0,0-0.6,2-3.5,3.2c-2.9,1.3-6.6,1.4-6.6,1.4L322,295.6z"/>
		<path class="st5" d="M284.9,254.1c-3.8-0.6-5.3,8.5-1.6,9.2l6,0.6c-2.4-0.2-0.7-8.8,1.1-8.3l0,0L284.9,254.1z"/>
	</g>
</g>
<g id="Magnifiyng_Glass">
	<g>
		<path class="st5" d="M436.2,251.7c0,5.1-4.1,9.3-9.3,9.3c-2.7,0-5.1-1.1-6.8-3l-0.6-0.7c0,0,0,0,0,0c-1.2-1.5-1.8-3.5-1.8-5.5
			c0-5.1,4.1-9.3,9.3-9.3c2.7,0,5.1,1.1,6.8,3l0.6,0.8c0,0,0,0,0,0C435.5,247.7,436.2,249.6,436.2,251.7z"/>
		<path class="st5" d="M436.2,251.7c0,5.1-4.1,9.3-9.3,9.3c-2.7,0-5.1-1.1-6.8-3l-0.6-0.7c0,0,0,0,0,0L381,210.6l16.3-9.4l36.5,44.1
			l0.6,0.8c0,0,0,0,0,0C435.5,247.7,436.2,249.6,436.2,251.7z"/>
		<path class="st2" d="M404.3,238.8c1.7,1.8,4.1,3,6.8,3c5.1,0,9.3-4.1,9.3-9.3c0-2.1-0.7-4-1.8-5.5c0,0,0,0,0,0l-4.8-5.7
			c0,0,0,0,0,0c1.1,1.5,1.8,3.5,1.8,5.5c0,5.1-4.2,9.3-9.3,9.3c-2.7,0-5.1-1.1-6.8-3L404.3,238.8z"/>
		<path class="st8" d="M396.6,128.1c3,0.4,5.8,1.3,8.3,2.7l-11.7-6.8l0,0c-7.9-5.4-19.2-5.1-31.8,2.2
			c-23.8,13.7-43.1,47.1-43.1,74.6c0,13.5,4.6,23.1,12.2,27.7l0.2,0.1l12.5,7.2c-2.2-1.4-4.1-3.2-5.7-5.4c2.9,0.3,6,0.2,9.2-0.5
			c1.1-0.2,2.2-0.5,3.3-0.9c-0.1-0.1-0.3-0.1-0.4-0.2c-0.6-0.3-1.2-0.6-1.7-1c-1-0.7-1.8-1.5-2.6-2.5c-1-1.2-1.8-2.6-2.4-4.2
			c-0.8,0.1-1.7,0.2-2.5,0.2c-2.1,0-4-0.4-5.7-1.1c-0.4-0.2-0.8-0.4-1.2-0.6c-0.4-0.2-0.7-0.5-1-0.7c-0.7-3.1-1-6.5-1-10.3
			c0-27.5,19.3-60.9,43.1-74.6c3.3-1.9,6.5-3.3,9.6-4.3c0.9,0.4,1.8,0.9,2.5,1.5c0.8,0.6,1.5,1.3,2.2,2.2c1,1.2,1.8,2.6,2.5,4.3
			c0.8-0.1,1.7-0.2,2.5-0.2c2.5,0,4.6,0.5,6.5,1.6c0.5,0.3,1,0.6,1.4,0.9c-0.2-0.8-0.4-1.6-0.6-2.3
			C400,133.7,398.5,130.6,396.6,128.1z"/>
		<g>
			<path class="st5" d="M404.9,130.8c-0.2-0.1-0.5-0.3-0.7-0.4c-2.3-1.2-4.8-2-7.6-2.3c-2.7-0.3-5.5-0.2-8.5,0.4
				c-1.3,0.3-2.6,0.6-4,1c-3.1,1-6.3,2.4-9.6,4.3c-23.8,13.7-43.1,47.1-43.1,74.6c0,3.8,0.4,7.2,1,10.3c0.1,0.6,0.3,1.2,0.4,1.8
				c1,3.8,2.6,7.1,4.6,9.8c1,1.3,2.1,2.5,3.2,3.6c0.8,0.7,1.6,1.3,2.5,1.9c7.8,5.1,19,4.6,31.3-2.5c23.8-13.7,43.1-47.1,43.1-74.6
				C417.5,144.9,412.7,135.2,404.9,130.8z M400.2,138.7c0.5,0.3,1,0.6,1.4,0.9c0.7,0.6,1.4,1.3,2.1,2.1c3,3.8,4.6,9.6,4.6,16.9
				c0,24-17.6,54.5-38.4,66.5c-5.2,3-10.3,4.6-14.6,4.6c-1.9,0-3.7-0.3-5.2-1c-0.1-0.1-0.3-0.1-0.4-0.2c-0.6-0.3-1.2-0.6-1.7-1
				c-0.7-0.5-1.3-1-1.9-1.6h0c-0.3-0.3-0.5-0.6-0.7-0.8c-1-1.2-1.8-2.6-2.4-4.2c-1.4-3.4-2.1-7.7-2.1-12.6c0-0.3,0-0.6,0-1
				c0.4-23.9,17.9-53.7,38.4-65.6c0.5-0.3,1-0.5,1.4-0.8c3.8-2,7.4-3.2,10.7-3.7c0.8-0.1,1.7-0.2,2.5-0.2c1.9,0,3.7,0.3,5.2,1
				C399.4,138.3,399.8,138.5,400.2,138.7z"/>
		</g>
		<path class="st10" d="M408.3,158.6c0,24-17.6,54.5-38.4,66.5c-1.3,0.8-2.6,1.4-3.9,2c0,0,0,0,0,0c-3.8,1.7-7.5,2.6-10.7,2.6
			c-1.9,0-3.7-0.3-5.2-1c-0.1-0.1-0.3-0.1-0.4-0.2c-0.6-0.3-1.2-0.6-1.7-1c-1-0.7-1.8-1.5-2.6-2.5c-0.3-0.3-0.5-0.7-0.8-1.1
			c0.5,0,1,0.1,1.5,0.1c4.3,0,9.3-1.6,14.6-4.6c20.8-12,38.4-42.5,38.4-66.5c0-6.6-1.3-12-3.8-15.8c1.9,0.1,3.5,0.6,5,1.5
			c0.5,0.3,1,0.6,1.4,0.9c0.7,0.6,1.4,1.3,2.1,2.1c2.6,3.3,4.2,8.2,4.5,14.3C408.2,156.9,408.3,157.8,408.3,158.6z"/>
		<path class="st12" d="M404.3,155.9c0,24-17.6,54.5-38.4,66.5c-5.2,3-10.3,4.6-14.6,4.6c-1.9,0-3.7-0.3-5.2-1h0
			c-0.3-0.3-0.5-0.6-0.7-0.8c-1-1.2-1.8-2.6-2.4-4.2c-1.4-3.4-2.1-7.7-2.1-12.6c0-0.3,0-0.6,0-1c0.4-23.9,17.9-53.7,38.4-65.6
			c0.5-0.3,1-0.5,1.4-0.8c3.8-2,7.4-3.2,10.7-3.7c0.8-0.1,1.7-0.2,2.5-0.2c1.9,0,3.7,0.3,5.2,1c0.3,0.3,0.5,0.6,0.8,0.8
			C402.7,142.7,404.3,148.6,404.3,155.9z"/>
	</g>
</g>
</svg>
